HIERARCHY
ROOT reference
{
  OFFSET 0 0 0
  CHANNELS 6 Xposition Yposition Zposition Zrotation Xrotation Yrotation
  JOINT Hips
  {
    OFFSET 63.1231 90.7754 126.625
    CHANNELS 6 Xposition Yposition Zposition Zrotation Xrotation Yrotation
    JOINT Spine
    {
      OFFSET 0 7.81434 0
      CHANNELS 6 Xposition Yposition Zposition Zrotation Xrotation Yrotation
      JOINT Spine1
      {
        OFFSET 0 23.3781 0
        CHANNELS 6 Xposition Yposition Zposition Zrotation Xrotation Yrotation
        JOINT Neck
        {
          OFFSET 0 23.2821 2.11656
          CHANNELS 6 Xposition Yposition Zposition Zrotation Xrotation Yrotation
          JOINT Head
          {
            OFFSET 0 13.3416 -1.90594
            CHANNELS 6 Xposition Yposition Zposition Zrotation Xrotation Yrotation
            End Site
            {
              OFFSET 0 23.8242 0
            }
          }
        }
        JOINT LeftShoulder
        {
          OFFSET 3.82472 21.4916 -0.175476
          CHANNELS 6 Xposition Yposition Zposition Zrotation Xrotation Yrotation
          JOINT LeftArm
          {
            OFFSET 10.8239 0 0
            CHANNELS 6 Xposition Yposition Zposition Zrotation Xrotation Yrotation
            JOINT LeftForeArm
            {
              OFFSET 28.5356 0 0
              CHANNELS 6 Xposition Yposition Zposition Zrotation Xrotation Yrotation
              JOINT LeftHand
              {
                OFFSET 24.5315 0 0
                CHANNELS 6 Xposition Yposition Zposition Zrotation Xrotation Yrotation
                End Site
                {
                  OFFSET 14.2945 0 0
                }
              }
            }
          }
        }
        JOINT RightShoulder
        {
          OFFSET -3.77033 21.4916 -0.175476
          CHANNELS 6 Xposition Yposition Zposition Zrotation Xrotation Yrotation
          JOINT RightArm
          {
            OFFSET -10.8239 0 0
            CHANNELS 6 Xposition Yposition Zposition Zrotation Xrotation Yrotation
            JOINT RightForeArm
            {
              OFFSET -28.5356 0 0
              CHANNELS 6 Xposition Yposition Zposition Zrotation Xrotation Yrotation
              JOINT RightHand
              {
                OFFSET -24.5315 0 0
                CHANNELS 6 Xposition Yposition Zposition Zrotation Xrotation Yrotation
                End Site
                {
                  OFFSET -14.2945 0 0
                }
              }
            }
          }
        }
      }
    }
    JOINT LeftUpLeg
    {
      OFFSET 9.52968 0 0
      CHANNELS 6 Xposition Yposition Zposition Zrotation Xrotation Yrotation
      JOINT LeftLeg
      {
        OFFSET 0 -40.1884 0
        CHANNELS 6 Xposition Yposition Zposition Zrotation Xrotation Yrotation
        JOINT LeftFoot
        {
          OFFSET 0 -39.9954 0
          CHANNELS 6 Xposition Yposition Zposition Zrotation Xrotation Yrotation
          JOINT LeftToeBase
          {
            OFFSET 0 -6.19429 14.2945
            CHANNELS 6 Xposition Yposition Zposition Zrotation Xrotation Yrotation
            End Site
            {
              OFFSET 0 0 3.81187
            }
          }
        }
      }
    }
    JOINT RightUpLeg
    {
      OFFSET -9.52968 0 0
      CHANNELS 6 Xposition Yposition Zposition Zrotation Xrotation Yrotation
      JOINT RightLeg
      {
        OFFSET 0 -40.1884 0
        CHANNELS 6 Xposition Yposition Zposition Zrotation Xrotation Yrotation
        JOINT RightFoot
        {
          OFFSET 0 -39.9954 0
          CHANNELS 6 Xposition Yposition Zposition Zrotation Xrotation Yrotation
          JOINT RightToeBase
          {
            OFFSET 0 -6.19429 14.2945
            CHANNELS 6 Xposition Yposition Zposition Zrotation Xrotation Yrotation
            End Site
            {
              OFFSET 0 0 3.81187
            }
          }
        }
      }
    }
  }
}
MOTION
Frames:	7
Frame Time:	0.004
0 0 0 0 0 -0 45.1533 81.6509 -75.7578 -1.11418 -1.56128 -93.4426 0 7.81434 0 3.05053 9.1584 -0.829723 0 23.3781 0 1.53142 -12.9642 -0.411503 1.42109e-014 23.2821 2.11656 2.61309 19.5336 0.90274 1.42109e-014 13.3416 -1.90594 -7.15844 -0.901784 -0.057222 3.82472 21.4916 -0.175476 0.968292 13.7619 15.9014 10.8239 0 -1.42109e-014 -31.0942 12.257 3.49033 28.5356 0 1.42109e-014 -3.58758 15.0085 3.56239 24.5315 -1.42109e-014 1.42109e-014 10.6275 14.7639 -3.91833 -3.77033 21.4916 -0.175476 1.22644 12.4178 -2.27606 -10.8239 0 -7.10543e-015 22.3265 13.4207 -2.04796 -28.5356 0 -1.42109e-014 5.13939 26.2564 1.13335 -24.5315 0 -2.84217e-014 -2.64589 26.3854 -8.41508 9.52968 0 0 18.6023 -0.105688 11.2885 0 -40.1884 -7.10543e-015 -0.394426 22.736 3.89788 -3.55271e-015 -39.9954 0 -12.079 -13.5027 -1.44015 0 -6.19429 14.2945 -2.20695e-032 3.97569e-016 3.18055e-015 -9.52968 1.42109e-014 0 -25.1333 -17.6514 -14.2572 0 -40.1884 7.10543e-015 1.46541 33.7317 -10.9159 0 -39.9954 7.10543e-015 8.75413 7.11757 -1.6367 0 -6.19429 14.2945 -3.57812e-015 1.39149e-015 3.18055e-015 
0 0 0 0 0 -0 45.2397 81.8185 -75.3879 -1.0912 -1.48492 -93.5802 0 7.81434 0 3.07933 9.21577 -0.743818 0 23.3781 0 1.58763 -13.1142 -0.313422 1.42109e-014 23.2821 2.11656 2.78411 19.7227 0.861235 0 13.3416 -1.90594 -7.27783 -0.982996 -0.113092 3.82472 21.4916 -0.175476 0.974223 13.8621 15.7697 10.8239 0 0 -31.0652 12.0005 3.54784 28.5356 0 0 -3.60304 14.9687 3.64942 24.5315 0 1.42109e-014 10.7128 14.7169 -3.99997 -3.77033 21.4916 -0.175476 1.23896 12.4727 -2.25319 -10.8239 0 7.10543e-015 22.2966 13.4184 -2.00499 -28.5356 2.84217e-014 -1.42109e-014 5.12212 26.1778 1.04803 -24.5315 0 2.84217e-014 -3.03179 26.3356 -8.4037 9.52968 0 0 18.334 0.053178 11.2278 7.10543e-015 -40.1884 0 -0.406588 22.351 3.94754 1.06581e-014 -39.9954 0 -11.8159 -13.4904 -1.25593 3.55271e-015 -6.19429 14.2945 -0 0 1.59028e-015 -9.52968 2.84217e-014 0 -24.7968 -17.9285 -14.5764 -1.42109e-014 -40.1884 -1.77636e-015 1.55246 34.5295 -10.9234 2.84217e-014 -39.9954 -7.10543e-015 8.8989 6.66087 -1.43785 0 -6.19429 14.2945 -1.88845e-015 4.96962e-016 3.18055e-015 
0 0 0 0 0 -0 45.3291 81.9828 -75.0242 -1.0437 -1.40102 -93.71 0 7.81434 0 3.11525 9.21826 -0.683207 0 23.3781 7.10543e-015 1.60796 -13.1508 -0.246947 -1.42109e-014 23.2821 2.11656 2.98171 19.6922 0.840791 1.42109e-014 13.3416 -1.90594 -7.37368 -0.908785 -0.138655 3.82472 21.4916 -0.175476 1.03811 13.8674 15.7518 10.8239 0 0 -31.0624 11.7518 3.57833 28.5356 0 0 -3.58274 14.932 3.6981 24.5315 0 1.42109e-014 10.9446 14.6603 -4.13808 -3.77033 21.4916 -0.175476 1.28865 12.4077 -2.20371 -10.8239 -2.84217e-014 -7.10543e-015 22.236 13.3773 -2.01181 -28.5356 2.84217e-014 0 5.05377 26.1574 1.0559 -24.5315 1.42109e-014 0 -2.74979 26.2988 -8.48814 9.52968 0 -7.10543e-015 18.0909 0.188225 11.1371 7.10543e-015 -40.1884 0 -0.453124 21.9799 3.89015 0 -39.9954 0 -11.4961 -13.5165 -0.938865 -3.55271e-015 -6.19429 14.2945 -1.59028e-015 -3.97569e-016 1.59028e-015 -9.52968 1.42109e-014 0 -24.4316 -18.2442 -14.8879 0 -40.1884 1.77636e-015 1.6745 35.4289 -10.8754 -1.42109e-014 -39.9954 -7.10543e-015 9.10425 6.23889 -1.42617 0 -6.19429 14.2945 -3.47873e-016 -7.33018e-016 -0 
0 0 0 0 0 -0 45.4199 82.1358 -74.666 -1.01792 -1.33131 -93.8551 0 7.81434 0 3.12092 9.23083 -0.612157 0 23.3781 0 1.64902 -13.1726 -0.170064 1.42109e-014 23.2821 2.11656 3.06883 19.6694 0.83346 1.42109e-014 13.3416 -1.90594 -7.31947 -0.832014 -0.131061 3.82472 21.4916 -0.175476 1.11535 13.7506 15.7189 10.8239 2.84217e-014 0 -31.07 11.7881 3.6545 28.5356 -1.42109e-014 0 -3.59 14.7993 3.78642 24.5315 7.10543e-015 0 11.1683 14.515 -4.21643 -3.77033 21.4916 -0.175476 1.32924 12.3384 -2.18241 -10.8239 0 0 22.1812 13.4509 -1.99086 -28.5356 0 0 4.97644 26.1049 1.08599 -24.5315 0 0 -2.51343 26.2301 -8.48783 9.52968 1.42109e-014 0 17.8348 0.360032 10.9792 7.10543e-015 -40.1884 -7.10543e-015 -0.523603 21.578 3.90352 7.10543e-015 -39.9954 0 -11.1435 -13.5526 -0.622426 -3.55271e-015 -6.19429 14.2945 1.59028e-015 0 -0 -9.52968 0 0 -24.0644 -18.572 -15.1806 0 -40.1884 0 1.81643 36.4482 -10.8359 1.42109e-014 -39.9954 0 9.19009 5.74031 -1.40916 0 -6.19429 14.2945 1.88845e-015 -1.78906e-015 9.54166e-015 
0 0 0 0 0 -0 45.5016 82.2776 -74.3188 -1.02353 -1.27402 -93.9743 0 7.81434 0 3.09716 9.30273 -0.54177 0 23.3781 0 1.73134 -13.3015 -0.088239 0 23.2821 2.11656 3.19717 19.8352 0.780112 -1.42109e-014 13.3416 -1.90594 -7.38528 -0.909908 -0.192106 3.82472 21.4916 -0.175476 1.18693 13.7259 15.5972 10.8239 -2.84217e-014 0 -31.0651 11.5241 3.76226 28.5356 0 -1.42109e-014 -3.63831 14.8885 3.89182 24.5315 -7.10543e-015 0 11.2199 14.6007 -4.28508 -3.77033 21.4916 -0.175476 1.31768 12.2999 -2.11451 -10.8239 -2.84217e-014 1.42109e-014 22.1269 13.3376 -2.03796 -28.5356 -2.84217e-014 1.42109e-014 5.08897 26.2673 1.0245 -24.5315 0 0 -3.49208 26.4504 -8.17908 9.52968 -1.42109e-014 -7.10543e-015 17.5578 0.546302 10.8366 0 -40.1884 0 -0.53661 21.1885 3.85368 0 -39.9954 0 -10.8345 -13.6027 -0.315882 0 -6.19429 14.2945 1.59028e-015 -3.97569e-016 1.59028e-015 -9.52968 0 0 -23.7111 -18.8485 -15.4365 0 -40.1884 1.77636e-015 2.0118 37.5409 -10.7663 0 -39.9954 -7.10543e-015 9.10237 5.08416 -1.33431 0 -6.19429 14.2945 -2.5842e-015 2.88238e-015 -6.36111e-015 
0 0 0 0 0 -0 45.5868 82.4075 -73.9797 -1.00381 -1.21961 -94.1112 0 7.81434 -7.10543e-015 3.0719 9.30769 -0.472229 0 23.3781 0 1.80276 -13.3059 -0.012162 0 23.2821 2.11656 3.30679 20.3199 0.951481 -7.10543e-015 13.3416 -1.90594 -7.44304 -1.67336 -0.051703 3.82472 21.4916 -0.175476 1.17951 13.6935 15.5754 10.8239 0 0 -30.992 11.3524 3.77577 28.5356 0 0 -3.66667 14.8448 3.95503 24.5315 0 0 11.3321 14.5527 -4.31654 -3.77033 21.4916 -0.175476 1.33084 12.2576 -2.0851 -10.8239 -2.84217e-014 -7.10543e-015 22.0844 13.2949 -2.015 -28.5356 0 0 5.066 26.3568 1.00404 -24.5315 0 0 -3.49247 26.5387 -8.10226 9.52968 1.42109e-014 0 17.2908 0.732871 10.6645 0 -40.1884 0 -0.583051 20.7683 3.82118 0 -39.9954 0 -10.4693 -13.6792 0.036785 -3.55271e-015 -6.19429 14.2945 -3.18055e-015 7.95139e-016 -0 -9.52968 -1.42109e-014 -7.10543e-015 -23.3398 -19.1772 -15.7337 0 -40.1884 3.55271e-015 2.1898 38.7532 -10.8033 -1.42109e-014 -39.9954 -7.10543e-015 8.9996 4.34996 -1.11232 0 -6.19429 14.2945 -1.39149e-015 4.87022e-015 -9.54166e-015 
0 0 0 0 0 -0 45.6606 82.534 -73.641 -1.03389 -1.16236 -94.2312 0 7.81434 0 3.07486 9.3454 -0.429527 -1.42109e-014 23.3781 0 1.80244 -13.2707 0.031115 0 23.2821 2.11656 3.39146 20.0459 0.791101 0 13.3416 -1.90594 -7.40295 -1.26636 -0.19234 3.82472 21.4916 -0.175476 1.32512 13.5811 15.5564 10.8239 2.84217e-014 0 -31.0615 11.3931 3.85634 28.5356 0 0 -3.61498 14.7346 3.9394 24.5315 -7.10543e-015 0 11.2692 14.4505 -4.23272 -3.77033 21.4916 -0.175476 1.3773 12.2008 -2.06056 -10.8239 0 7.10543e-015 22.0123 13.3333 -1.95442 -28.5356 0 -1.42109e-014 4.99324 26.2308 1.08974 -24.5315 -2.84217e-014 0 -2.48046 26.3557 -8.6107 9.52968 0 0 17.0073 0.971322 10.4206 3.55271e-015 -40.1884 -7.10543e-015 -0.600491 20.3347 3.80994 3.55271e-015 -39.9954 0 -10.1562 -13.7519 0.365338 0 -6.19429 14.2945 1.59028e-015 0 -0 -9.52968 0 0 -22.9578 -19.4379 -16.0155 -1.42109e-014 -40.1884 0 2.40526 39.9976 -10.8332 1.42109e-014 -39.9954 0 9.15396 3.56791 -1.00739 1.42109e-014 -6.19429 14.2945 -3.97569e-016 1.39149e-015 -0 
